<?xml version="1.0" encoding="utf-8"?>
<!-- Generator: Adobe Illustrator 22.0.0, SVG Export Plug-In . SVG Version: 6.00 Build 0)  -->
<svg version="1.1" id="Слой_1" xmlns="http://www.w3.org/2000/svg" xmlns:xlink="http://www.w3.org/1999/xlink" x="0px" y="0px"
	 viewBox="0 0 130.5 132" style="enable-background:new 0 0 130.5 132;" xml:space="preserve">
<g>
	<path d="M109.6,43.7H17.9c-1.1,0-2.1,0.4-2.9,1.2c-0.8,0.8-1.2,1.8-1.2,2.9v62.6c0,1.1,0.4,2.1,1.2,2.9c0.8,0.8,1.8,1.2,2.9,1.2
		h91.8c1.1,0,2.1-0.4,2.9-1.2c0.8-0.8,1.2-1.8,1.2-2.9V47.9c0-1.1-0.4-2.1-1.2-2.9C111.7,44.1,110.8,43.7,109.6,43.7L109.6,43.7z
		 M75,63.3c-0.8,0.8-1.8,1.2-2.9,1.2H55.4c-1.1,0-2.1-0.4-2.9-1.2c-0.8-0.8-1.2-1.8-1.2-2.9c0-1.1,0.4-2.1,1.2-2.9
		c0.8-0.8,1.8-1.2,2.9-1.2h16.7c1.1,0,2.1,0.4,2.9,1.2c0.8,0.8,1.2,1.8,1.2,2.9C76.3,61.5,75.8,62.5,75,63.3L75,63.3z M75,63.3"/>
	<path d="M116.7,15.8c-0.8-0.8-1.8-1.2-2.9-1.2H13.7c-1.1,0-2.1,0.4-2.9,1.2c-0.8,0.8-1.2,1.8-1.2,2.9v16.7c0,1.1,0.4,2.1,1.2,2.9
		c0.8,0.8,1.8,1.2,2.9,1.2h100.1c1.1,0,2.1-0.4,2.9-1.2c0.8-0.8,1.2-1.8,1.2-2.9V18.7C118,17.6,117.6,16.6,116.7,15.8L116.7,15.8z
		 M116.7,15.8"/>
</g>
</svg>
