<?xml version="1.0" encoding="iso-8859-1"?>
<!-- Generator: Adobe Illustrator 22.0.0, SVG Export Plug-In . SVG Version: 6.00 Build 0)  -->
<svg version="1.1" id="Capa_1" xmlns="http://www.w3.org/2000/svg" xmlns:xlink="http://www.w3.org/1999/xlink" x="0px" y="0px"
	 viewBox="-49 141 512 512" style="fill: #fdc500; enable-background:new -49 141 512 512;" xml:space="preserve">
<path d="M356.333,183.667h-44.632c-4.418-12.389-16.147-21.333-30.035-21.333h-32.219C239.427,149.042,223.677,141,207,141
	s-32.427,8.042-42.448,21.333h-32.219c-13.888,0-25.617,8.944-30.035,21.333H57.667C34.135,183.667,15,202.802,15,226.333v384
	C15,633.865,34.135,653,57.667,653h298.667C379.865,653,399,633.865,399,610.333v-384C399,202.802,379.865,183.667,356.333,183.667z
	 M111,589c-17.646,0-32-14.354-32-32c0-17.646,14.354-32,32-32s32,14.354,32,32C143,574.646,128.646,589,111,589z M111,482.333
	c-17.646,0-32-14.354-32-32s14.354-32,32-32s32,14.354,32,32S128.646,482.333,111,482.333z M111,375.667c-17.646,0-32-14.354-32-32
	c0-17.646,14.354-32,32-32s32,14.354,32,32C143,361.313,128.646,375.667,111,375.667z M121.667,205v-10.667
	c0-5.885,4.781-10.667,10.667-10.667h37.917c3.792,0,7.302-2.021,9.219-5.302c5.844-10.042,16.135-16.031,27.531-16.031
	c11.396,0,21.688,5.99,27.531,16.031c1.917,3.281,5.427,5.302,9.219,5.302h37.917c5.885,0,10.667,4.781,10.667,10.667V205
	c0,11.76-9.573,21.333-21.333,21.333H143C131.24,226.333,121.667,216.76,121.667,205z M324.333,567.667h-128
	c-5.896,0-10.667-4.771-10.667-10.667c0-5.896,4.771-10.667,10.667-10.667h128c5.896,0,10.667,4.771,10.667,10.667
	C335,562.896,330.229,567.667,324.333,567.667z M324.333,461h-128c-5.896,0-10.667-4.771-10.667-10.667s4.771-10.667,10.667-10.667
	h128c5.896,0,10.667,4.771,10.667,10.667S330.229,461,324.333,461z M324.333,354.333h-128c-5.896,0-10.667-4.771-10.667-10.667
	c0-5.896,4.771-10.667,10.667-10.667h128c5.896,0,10.667,4.771,10.667,10.667C335,349.563,330.229,354.333,324.333,354.333z"/>
</svg>
