<?xml version="1.0" encoding="utf-8"?>
<!-- Generator: Adobe Illustrator 22.0.0, SVG Export Plug-In . SVG Version: 6.00 Build 0)  -->
<svg version="1.1" id="Слой_1" xmlns="http://www.w3.org/2000/svg" xmlns:xlink="http://www.w3.org/1999/xlink" x="0px" y="0px"
	 viewBox="0 0 41.8 38.8" style="enable-background:new 0 0 41.8 38.8;" xml:space="preserve">
<style type="text/css">
	.st0{clip-path:url(#SVGID_2_);}
</style>
<g>
	<g>
		<defs>
			<rect id="SVGID_1_" x="-0.1" y="-0.3" width="42" height="39.8"/>
		</defs>
		<clipPath id="SVGID_2_">
			<use xlink:href="#SVGID_1_"  style="overflow:visible;"/>
		</clipPath>
		<path class="st0" d="M41.4,11.5C40.8,4.8,36.1,0,30.1,0c-3.9,0-7.6,2.1-9.6,5.5C18.5,2,15.1,0,11.2,0C5.3,0,0.6,4.8-0.1,11.5
			c0,0.3-0.2,1.8,0.4,4.4c0.9,3.7,2.9,7,5.8,9.6l14.5,13.2l14.7-13.1c2.9-2.6,4.9-6,5.8-9.6C41.6,13.3,41.4,11.8,41.4,11.5
			L41.4,11.5z M41.4,11.5"/>
	</g>
</g>
</svg>
