<?xml version="1.0" encoding="utf-8"?>
<!-- Generator: Adobe Illustrator 22.0.0, SVG Export Plug-In . SVG Version: 6.00 Build 0)  -->
<svg version="1.1" id="Слой_1" xmlns="http://www.w3.org/2000/svg" xmlns:xlink="http://www.w3.org/1999/xlink" x="0px" y="0px"
	 viewBox="0 0 612 792" style="fill:#fdc500; enable-background:new 0 0 612 792;" xml:space="preserve">
<g>
	<path d="M415.9,538.9h-84V454h27.8c7,0,11.2-8,7-13.8l-54-74.7c-3.4-4.8-10.6-4.8-14,0l-54,74.7c-4.2,5.8-0.1,13.8,7,13.8h27.8
		v84.9h-94.1c-42-2.3-75.4-41.6-75.4-84.2c0-29.4,15.9-55,39.5-68.8c-2.2-5.8-3.3-12.1-3.3-18.6c0-30,24.2-54.2,54.2-54.2
		c6.5,0,12.7,1.1,18.6,3.3c17.4-36.8,54.8-62.3,98.3-62.3c56.3,0.1,102.7,43.2,108,98.2c43.3,7.4,76.2,47.5,76.2,92.9
		C501.5,493.5,463.8,535.5,415.9,538.9L415.9,538.9z M415.9,538.9"/>
</g>
</svg>
