<?xml version="1.0" encoding="utf-8"?>
<!-- Generator: Adobe Illustrator 22.0.0, SVG Export Plug-In . SVG Version: 6.00 Build 0)  -->
<svg version="1.1" id="Layer_1" xmlns="http://www.w3.org/2000/svg" xmlns:xlink="http://www.w3.org/1999/xlink" x="0px" y="0px"
	 viewBox="0 0 333 416.3" style="enable-background:new 0 0 333 416.3;" xml:space="preserve">
<g>
	<path d="M14,168c-21,97,48,158,101,139c53-18,21-111,71-96c7,2,13,3,20,5c-8,20-17,50-7,54c14,7,44-55,45-55c21-7,34-24,31-58
		c-1-8,10-28,14-38c38-3,41-92,25-96s-2,22-36,35c-18,8-36,20-26,40C193,24,45,26,14,168z M266,113l-51,116c-14,39-17,38,4,2l0,0
		l57-114C272,116,269,115,266,113z M264,94c10,16,46,26,46-44C295,79,256,66,264,94L264,94z M311,36c-1,0-1,0,0,1
		C311,36,311,36,311,36z M31,248c-2-4,4-7,6-2c24,58,90,72,98-7c2-20,7-8,7-7c0,2,0,5-1,8C133,325,59,316,31,248z M74,197
		c28,0,28,43,0,43S46,197,74,197z M82,127c28,0,28,43,0,43S54,127,82,127z M141,82c28,0,28,43,0,43S113,82,141,82z M212,91
		c28,0,28,43,0,43C183,134,183,91,212,91z"/>
</g>
</svg>
