<?xml version="1.0" encoding="utf-8"?>
<!-- Generator: Adobe Illustrator 22.0.0, SVG Export Plug-In . SVG Version: 6.00 Build 0)  -->
<svg version="1.1" id="Слой_1" xmlns="http://www.w3.org/2000/svg" xmlns:xlink="http://www.w3.org/1999/xlink" x="0px" y="0px"
	 viewBox="0 0 59.3 61.8" style="enable-background:new 0 0 59.3 61.8;" xml:space="preserve">
<style type="text/css">
	.st0{fill:none;}
	.st1{fill:#E08B44;}
</style>
<path class="st0" d="M-19.5-2.2h98v72h-98V-2.2z"/>
<path class="st1" d="M46.1,41.2c-0.6-0.2-0.6,0.5-0.5,0.9c0.1,0.8,0.5,1.5,1.1,2c0.3,0.2,0.7-0.2,0.4-1.3
	C47.1,42.2,46.7,41.6,46.1,41.2z M41.7,43.1h-0.2c-0.3-0.1-0.7,0-1,0.2c-0.7,0.5-0.8,1.5-0.3,2.2c0,0,0,0,0.1,0.1
	c0.3,0.3,0.6,0.6,1,0.8h0.2c0.3,0.1,0.7,0,1-0.2c0.7-0.5,0.8-1.5,0.3-2.2c0,0,0,0-0.1-0.1C42.5,43.5,42.2,43.3,41.7,43.1z
	 M57.5,59.2c-1.7-3.3-4.4-5.9-7.7-7.6c-1.1-0.6-2.2-1.1-3.4-1.5c-2.5-0.7-5-1.2-7.6-1.5c-2.1-0.4-4.2-1.3-5.9-2.6
	c-1-0.7-1.8-1.6-2.5-2.6c-0.1-0.2-0.8-1-0.7-1.2c-0.2,1.4-0.1,2.9,0.4,4.3C22,46.1,15,41.7,11.7,36.2c-6-10-3.9-22.1,4.1-27.4
	c7.9-5.3,20.1-1.6,26.6,8.1c4.1,6.1,5.1,13.1,3.4,18.8v0.1c-1.9-1.5-4.3-1.9-6.6-1.2c3.5-0.4,6.2,2.4,6.2,2.4
	c0.4,0.4,0.8,0.8,1.1,1.2c0.1,0.1,0.2,0.2,0.2,0.3c0.9,1.2,1.5,2.5,1.7,4c6.9-8.7,8-20.8,1.9-30.1c-7.7-11.9-24.2-15-36.8-6.8
	C1,13.7-3,30,4.8,42c6.4,9.8,21.3,12.8,29.8,10.1c8.1-2,16.6,0.8,22,7.1c0.4,0.5,0.7,1,1,1.6c0.1,0.2,0.2,0.3,0.4,0.2c0,0,0,0,0,0
	C58.1,60.9,58.3,60.7,57.5,59.2z"/>
</svg>
