<?xml version="1.0" encoding="utf-8"?>
<!-- Generator: Adobe Illustrator 21.1.0, SVG Export Plug-In . SVG Version: 6.00 Build 0)  -->
<svg version="1.1" id="Слой_1" xmlns="http://www.w3.org/2000/svg" xmlns:xlink="http://www.w3.org/1999/xlink" x="0px" y="0px"
	 viewBox="0 0 235 270" style="enable-background:new 0 0 235 270;" xml:space="preserve">
<style type="text/css">
	.st0{clip-path:url(#SVGID_2_);fill-rule:evenodd;clip-rule:evenodd;}
</style>
<g>
	<g>
		<defs>
			<rect id="SVGID_1_" x="9.6" y="37" width="215.8" height="216"/>
		</defs>
		<clipPath id="SVGID_2_">
			<use xlink:href="#SVGID_1_"  style="overflow:visible;"/>
		</clipPath>
		<path class="st0" d="M224,132.6c-0.3-3-3.9-5.3-6.9-5.3c-9.9,0-18.6-5.8-22.3-14.7c-3.7-9.2-1.3-19.8,6-26.6
			c2.3-2.1,2.6-5.7,0.7-8.1c-5-6.4-10.8-12.2-17-17.2c-2.4-2-6-1.7-8.2,0.7c-6.4,7.1-17.9,9.7-26.8,6c-9.3-3.9-15.1-13.3-14.5-23.3
			c0.2-3.2-2.1-5.9-5.3-6.3c-8-0.9-16.1-1-24.2-0.1c-3.1,0.3-5.4,3-5.3,6.2c0.3,10-5.6,19.2-14.7,22.9c-8.8,3.6-20.2,1-26.6-6.1
			c-2.1-2.3-5.6-2.6-8.1-0.7c-6.4,5.1-12.3,10.8-17.4,17.2c-2,2.5-1.7,6,0.6,8.2c7.5,6.8,9.9,17.6,6,26.8
			c-3.7,8.8-12.9,14.5-23.4,14.5c-3.4-0.1-5.8,2.2-6.2,5.3c-0.9,8.1-1,16.3,0,24.4c0.3,3,4,5.3,7.1,5.3c9.4-0.2,18.3,5.6,22.1,14.7
			c3.8,9.2,1.3,19.8-6,26.6c-2.3,2.1-2.6,5.6-0.7,8.1c5,6.4,10.7,12.2,17,17.2c2.5,2,6,1.7,8.2-0.6c6.4-7.1,17.9-9.7,26.8-6
			c9.3,3.9,15.1,13.3,14.5,23.3c-0.2,3.2,2.1,5.9,5.3,6.3c4.1,0.5,8.2,0.7,12.4,0.7c3.9,0,7.9-0.2,11.8-0.7c3.1-0.3,5.4-3,5.3-6.2
			c-0.4-10,5.6-19.2,14.7-22.9c8.8-3.6,20.2-1,26.6,6.1c2.1,2.3,5.6,2.6,8.1,0.7c6.4-5,12.3-10.8,17.4-17.2c2-2.5,1.7-6-0.6-8.2
			c-7.5-6.8-9.9-17.6-6-26.8c3.7-8.7,12.5-14.6,22-14.6l1.3,0c3.1,0.3,5.9-2.1,6.3-5.3C224.9,148.9,224.9,140.7,224,132.6L224,132.6
			z M117.3,180.6c-19.8,0-35.9-16.1-35.9-35.9c0-19.8,16.1-35.9,35.9-35.9c19.8,0,35.9,16.1,35.9,35.9
			C153.2,164.5,137.1,180.6,117.3,180.6L117.3,180.6z M117.3,180.6"/>
	</g>
</g>
</svg>
