<?xml version="1.0" encoding="utf-8"?>
<!-- Generator: Adobe Illustrator 22.0.0, SVG Export Plug-In . SVG Version: 6.00 Build 0)  -->
<svg version="1.1" id="Слой_1" xmlns="http://www.w3.org/2000/svg" xmlns:xlink="http://www.w3.org/1999/xlink" x="0px" y="0px"
	 viewBox="0 0 50.5 66.3" style="enable-background:new 0 0 50.5 66.3;" xml:space="preserve">
<style type="text/css">
	.st0{fill:none;}
	.st1{fill:#FFCC00;}
	.st2{fill:#D6AB05;}
</style>
<path class="st0" d="M-23.8-2h98v72h-98V-2z"/>
<path class="st1" d="M0.8,32.8c0-3.5,0.2-6,7.7-11.5c6.2-4.6,26-20.3,26-20.3v26.3h15V65H5.4c-2.5-0.1-4.5-2.1-4.6-4.6V32.8z"/>
<path class="st2" d="M34.6,27.3v15.2L6.8,61.2l35-11.2V27.3H34.6z"/>
<path d="M21.8,26.4c1.5-2,4-2.6,5.3-1.5s1.1,3.5-0.7,5.5c-1.5,2-4,2.6-5.3,1.5C20,30.8,20.2,28.4,21.8,26.4"/>
</svg>
