<?xml version="1.0" encoding="utf-8"?>
<!-- Generator: Adobe Illustrator 22.0.0, SVG Export Plug-In . SVG Version: 6.00 Build 0)  -->
<svg version="1.1" id="Слой_1" xmlns="http://www.w3.org/2000/svg" xmlns:xlink="http://www.w3.org/1999/xlink" x="0px" y="0px"
	 viewBox="0 0 98 72" style="enable-background:new 0 0 98 72;" xml:space="preserve">
<style type="text/css">
	.st0{fill:none;}
	.st1{fill:#20AA4D;}
	.st2{fill:#FFFFFF;}
	.st3{fill:url(#SVGID_1_);}
	.st4{opacity:0.2;fill:#010000;enable-background:new    ;}
	.st5{fill:#FF5F00;}
	.st6{fill:#EB001B;}
	.st7{fill:#F79E1B;}
	.st8{fill:#18236E;}
</style>
<path class="st0" d="M0,0h98v72H0V0z"/>
<path class="st1" d="M92.3,18.8c2.3,0.8,3.4,3.3,2.6,5.6L79.1,66.9c-0.8,2.3-3.3,3.4-5.6,2.6l-25.7-9.6c-2.3-0.8-3.4-3.3-2.6-5.6
	l15.7-42.4c0.8-2.3,3.3-3.4,5.6-2.6L92.3,18.8z"/>
<path class="st2" d="M68.1,35.5l4.3,4.5l-0.1,0.2l-6.4-2.4l-1.4,3.5l10.9,4.3l1.1-2.9c0.3-0.8,0.1-1.6-0.4-2.2L71.8,36l0.1-0.2
	l6.4,2.5l1.4-3.5l-10.9-4.3l-1.1,2.9C67.4,34.1,67.6,35,68.1,35.5 M63.3,48.7l4.4,3.4l-0.1,0.2L62,51.8c-0.9,0-1.8,0.5-2.2,1.3
	l-1.4,3.5l10.9,4.3l1.4-3.5l-6.4-2.5l0.1-0.2l7.2,0.5l1-2.5l-5.7-4.5L67,48l6.4,2.5l1.5-3.5L64,42.7l-1.4,3.5
	C62.3,47.1,62.6,48.1,63.3,48.7 M74.4,30.8l5.9,2.3l1.4-3.5l-3.5-1.4l1.5-3.7c0.6-1.6,0.1-3.4-1.1-4.5L74.4,30.8z"/>
<linearGradient id="SVGID_1_" gradientUnits="userSpaceOnUse" x1="-1009.1517" y1="1077.7816" x2="-996.9327" y2="1077.7816" gradientTransform="matrix(0.3642 -0.9313 0.9313 0.3642 -564.8177 -1302.1357)">
	<stop  offset="1.000000e-02" style="stop-color:#00A7E3"/>
	<stop  offset="0.337" style="stop-color:#009EDC"/>
	<stop  offset="0.875" style="stop-color:#0085C9"/>
	<stop  offset="1" style="stop-color:#007EC4"/>
</linearGradient>
<path class="st3" d="M72.2,21.7l-3,7.7c2.8,0.5,5.5-1,6.5-3.6l2.3-6c-0.2-0.1-0.5-0.3-0.7-0.4C75.2,18.7,73,19.7,72.2,21.7"/>
<path class="st4" d="M63,58.8l-6.7,4.3l-11.4-4.3l7.1-9.3L63,58.8z"/>
<path d="M67.1,5.1c2.4,0.3,4.1,2.4,3.9,4.8l-5,45c-0.3,2.4-2.4,4.1-4.8,3.9l-27.3-3c-2.4-0.3-4.1-2.4-3.9-4.8l5-45
	c0.3-2.4,2.5-4.2,4.9-4L67.1,5.1z"/>
<path class="st2" d="M62,41.5l-1.7-0.2c-0.5-0.1-1.1,0.2-1.2,0.8c0,0,0,0.1,0,0.1c-0.1,0.4,0.1,0.8,0.4,1c-0.3,0.2-0.6,0.5-0.6,0.8
	c-0.1,0.3,0.1,0.6,0.3,0.9l-0.3,0l-0.1,0.5l2.7,0.3l0.1-0.5L60,45c-0.4,0-0.6-0.3-0.6-0.7c0,0,0-0.1,0-0.1c0-0.4,0.3-0.6,0.8-0.5
	l1.6,0.2l0.1-0.5l-1.5-0.2c-0.4,0-0.7-0.3-0.6-0.7c0,0,0-0.1,0-0.1c0-0.4,0.3-0.6,0.8-0.5l1.6,0.2L62,41.5z M60.3,32.3l-0.1,1
	l-0.8-0.1l-0.1,0.5l0.8,0.1l-0.1,0.6l0.5,0.1l0.1-0.6l1.3,0.1c0.6,0.1,1-0.1,1.1-0.8c0-0.3,0-0.5-0.1-0.8l-0.5,0.1
	c0.1,0.2,0.1,0.4,0.1,0.5c0,0.3-0.2,0.4-0.5,0.4l-1.3-0.2l0.1-1L60.3,32.3z M60.8,27.3c0,0.3,0.1,0.6,0.3,0.8l-0.3,0l-0.1,0.5
	l2.7,0.3l0.1-0.5L62,28.2c-0.4-0.1-0.7-0.3-0.7-0.7c0-0.1,0.1-0.2,0.1-0.4L61,26.9C60.9,27,60.8,27.2,60.8,27.3L60.8,27.3z
	 M60.2,34.9c-0.2,0.3-0.4,0.7-0.4,1.1c-0.1,0.7,0.2,1.1,0.7,1.2c0.4,0.1,0.7-0.2,0.9-0.8l0.1-0.3c0.1-0.3,0.2-0.5,0.4-0.5
	c0.2,0,0.3,0.3,0.3,0.7c0,0.3-0.2,0.6-0.4,0.9l0.4,0.3c0.3-0.3,0.4-0.7,0.5-1.1c0.1-0.8-0.2-1.3-0.7-1.3c-0.5-0.1-0.8,0.2-0.9,0.8
	l-0.1,0.3c-0.1,0.3-0.2,0.5-0.3,0.4c-0.2,0-0.3-0.3-0.3-0.6c0-0.3,0.2-0.6,0.3-0.8L60.2,34.9z M62.3,26.9c0.7,0.1,1.4-0.4,1.6-1.1
	c0,0,0-0.1,0-0.1c0.1-0.4,0-0.7-0.2-1l-0.5,0.2c0.1,0.2,0.2,0.5,0.2,0.7c-0.1,0.5-0.6,0.8-1.1,0.7c-0.4-0.1-0.8-0.5-0.7-0.9
	c0-0.3,0.1-0.5,0.3-0.7l-0.4-0.3c-0.3,0.2-0.4,0.6-0.4,0.9c-0.1,0.7,0.4,1.4,1.1,1.6C62.2,26.9,62.3,26.9,62.3,26.9L62.3,26.9z
	 M60.5,30.5c-0.1,0.7,0.4,1.4,1.1,1.5c0,0,0.1,0,0.1,0c0.7,0.1,1.4-0.3,1.6-1.1c0,0,0-0.1,0-0.1c0.1-0.4,0-0.8-0.2-1.2l-0.4,0.2
	c0.2,0.2,0.2,0.5,0.2,0.8c0,0.4-0.4,0.7-0.8,0.7l0.2-2c-0.1,0-0.1,0-0.2,0c-0.7-0.2-1.4,0.3-1.5,1C60.5,30.4,60.5,30.5,60.5,30.5
	L60.5,30.5z M61,30.6c0-0.4,0.4-0.7,0.7-0.6c0,0,0,0,0,0l-0.2,1.5C61.2,31.3,60.9,31,61,30.6L61,30.6z M61,38l-1.3-0.2l-0.1,0.5
	l0.3,0c-0.3,0.2-0.5,0.5-0.5,0.8c0,0.8,0.6,1.5,1.4,1.5c0.7,0,1.3-0.5,1.5-1.2c0.1-0.3-0.1-0.7-0.3-0.9l0.3,0l0.1-0.5L61,38z
	 M60.8,40.2c-0.5,0-0.8-0.4-0.8-0.9c0,0,0,0,0-0.1c0.1-0.5,0.6-0.8,1.1-0.7c0.4,0.1,0.7,0.5,0.7,0.9C61.7,39.9,61.3,40.2,60.8,40.2
	C60.8,40.2,60.8,40.2,60.8,40.2L60.8,40.2z M61.8,19.2c0,0.3,0.1,0.6,0.3,0.8l-0.3,0l-0.1,0.5l2.7,0.3l0.1-0.5L62.9,20
	c-0.4-0.1-0.7-0.3-0.7-0.7c0-0.1,0.1-0.2,0.1-0.4l-0.5-0.2C61.8,18.9,61.8,19,61.8,19.2L61.8,19.2z M63,21.4l-1.3-0.2l-0.1,0.5
	l0.3,0c-0.3,0.2-0.5,0.5-0.5,0.8c0,0.8,0.6,1.5,1.4,1.5c0.7,0,1.3-0.5,1.5-1.2c0.1-0.3-0.1-0.7-0.3-0.9l0.3,0l0.1-0.5L63,21.4z
	 M62.7,23.6c-0.5,0-0.8-0.4-0.8-0.9c0,0,0,0,0-0.1c0.1-0.5,0.6-0.8,1.1-0.7c0.4,0.1,0.7,0.5,0.7,0.9C63.7,23.3,63.2,23.7,62.7,23.6
	C62.7,23.6,62.7,23.6,62.7,23.6L62.7,23.6z M63.6,16l-2.4-0.3l-0.1,0.5l1.4,0.2c-0.3,0.2-0.5,0.5-0.5,0.8c0,0.8,0.6,1.5,1.4,1.5
	c0.7,0,1.3-0.5,1.5-1.2c0.1-0.3-0.1-0.7-0.3-0.9l0.3,0l0.1-0.5L63.6,16z M63.3,18.1c-0.5,0-0.8-0.4-0.8-0.9c0,0,0,0,0-0.1
	c0.1-0.5,0.6-0.8,1.1-0.7c0.4,0.1,0.7,0.5,0.7,0.9C64.3,17.9,63.9,18.2,63.3,18.1C63.4,18.2,63.4,18.2,63.3,18.1L63.3,18.1z"/>
<path class="st5" d="M39.4,33.1l1.1-9.8l16,1.9L55.4,35L39.4,33.1z"/>
<path class="st6" d="M47.5,33.1c-3.1-0.4-5.9-2.1-7.5-4.8c-4,4-4,10.5,0,14.5s10.5,4,14.5,0c3.3-3.3,3.9-8.5,1.5-12.5
	C53.7,32.3,50.6,33.4,47.5,33.1z"/>
<path class="st7" d="M49.9,12.8c5.6,0.7,9.6,5.7,9,11.3c-0.3,2.3-1.3,4.4-2.9,6c-3-4.8-9.2-6.3-14.1-3.4c-0.7,0.4-1.3,0.9-1.9,1.5
	c-3-4.8-1.4-11.1,3.4-14.1C45.3,13,47.6,12.5,49.9,12.8L49.9,12.8z"/>
<path class="st8" d="M31.1,9.3c2.2-0.9,4.8,0.2,5.7,2.4l16.9,42c0.9,2.2-0.2,4.8-2.4,5.7L25.8,69.7c-2.2,0.9-4.8-0.2-5.7-2.4
	l-16.9-42c-0.9-2.2,0.2-4.8,2.4-5.7L31.1,9.3z"/>
<path class="st2" d="M36,39.7l1.2,3l-12,2.9l-1.2-3L36,39.7z M28.5,22.1l-1.1-2.7l-10.2,7.1l1,2.3c0.2,0.6,0.8,1,1.4,1h12.2l-1.3-3
	l-1.9,0.1L27,23.2L28.5,22.1z M25.9,27l-4.8,0.2l3.8-2.6L25.9,27z M23.2,33.2l-2.6,0.6c0.1,1,0.3,1.9,0.6,2.8
	c0.6,1.5,2.7,4.6,5.8,3.3c2.9-1.2,1.2-5.3,2.8-5.9c1.5-0.6,2.8,3.1,2.3,4.7l2.7-0.6c0-1.2-0.3-2.5-0.8-3.6c-0.8-2-3.1-4.6-6-3.4
	c-2.9,1.2-1.5,5.4-2.7,6C24,37.7,23,34.7,23.2,33.2z M34.4,50.3l-4.7,3.2c-0.6,0.4-0.8,1.3-0.4,1.9l2,4.7h0.2
	c-0.3-1.8-0.1-3.7,0.4-5.4C32.3,53,33.2,51.5,34.4,50.3z"/>
<path class="st2" d="M27,49.8l8.9-0.5l-1.5,1l0,0c-1.2,1.2-2,2.6-2.5,4.2c-0.2,0.5-0.3,1.1-0.4,1.6l8.7-6.6l-1.3-3l-13.2,0.1
	L27,49.8z"/>
</svg>
