<?xml version="1.0" encoding="utf-8"?>
<!-- Generator: Adobe Illustrator 21.1.0, SVG Export Plug-In . SVG Version: 6.00 Build 0)  -->
<svg version="1.1" id="Слой_1" xmlns="http://www.w3.org/2000/svg" xmlns:xlink="http://www.w3.org/1999/xlink" x="0px" y="0px"
	 viewBox="0 0 50 41.3" style="fill:#fecb2e;enable-background:new 0 0 50 41.3;" xml:space="preserve">
<style type="text/css">
	.st0{clip-path:url(#SVGID_2_);}
</style>
<g>
	<path d="M26.9,22.6v-0.9c0-1.1-0.9-2-2-2c-1.1,0-2,0.9-2,2v0.9c0,1.1,0.9,2,2,2C26,24.6,26.9,23.7,26.9,22.6L26.9,22.6z M26.9,22.6
		"/>
	<g>
		<defs>
			<rect id="SVGID_1_" x="4.8" y="2.5" width="40.8" height="32.9"/>
		</defs>
		<clipPath id="SVGID_2_">
			<use xlink:href="#SVGID_1_"  style="overflow:visible;"/>
		</clipPath>
		<path class="st0" d="M28.3,23.7c-0.4,1.4-1.8,2.5-3.3,2.5c-1.6,0-2.9-1.1-3.3-2.5H8c-0.9,0-1.7-0.2-2.4-0.5v9
			c0,1.8,1.4,3.2,3.2,3.2H41c1.8,0,3.2-1.4,3.2-3.2v-9c-0.7,0.3-1.5,0.5-2.4,0.5H28.3z M28.3,23.7"/>
		<path class="st0" d="M41.7,7.5H34c-0.5-2.9-3-5.1-6-5.1h-6.2c-3,0-5.5,2.2-6,5.1H8.2c-1.8,0-3.3,1.4-3.3,3.2v7.4
			c0,1.8,1.4,3.2,3.2,3.2h13.4c0-0.9,0.4-1.8,1.1-2.3c0,0,0,0,0.1-0.1c0.1-0.1,0.3-0.2,0.4-0.4c0.1,0,0.1-0.1,0.2-0.1
			c0.1-0.1,0.3-0.2,0.4-0.2c0.1,0,0.2-0.1,0.3-0.1c0.1,0,0.2-0.1,0.3-0.1c0.2,0,0.5-0.1,0.7-0.1c0.2,0,0.5,0,0.7,0.1
			c0.1,0,0.2,0.1,0.3,0.1c0.1,0,0.2,0.1,0.3,0.1c0.1,0.1,0.3,0.1,0.4,0.2c0.1,0,0.1,0.1,0.2,0.1c0.2,0.1,0.3,0.2,0.4,0.4
			c0,0,0,0,0.1,0.1c0.6,0.6,1,1.4,1.1,2.3h13.4c1.8,0,3.2-1.4,3.2-3.2v-7.4C45,9,43.5,7.5,41.7,7.5L41.7,7.5z M18.9,7.5
			c0.4-1.2,1.6-2.1,2.9-2.1H28c1.4,0,2.5,0.9,2.9,2.1H18.9z M18.9,7.5"/>
	</g>
</g>
</svg>
