<?xml version="1.0" encoding="iso-8859-1"?>
<!-- Generator: Adobe Illustrator 22.0.0, SVG Export Plug-In . SVG Version: 6.00 Build 0)  -->
<svg version="1.1" id="&#x421;&#x43B;&#x43E;&#x439;_1"
	 xmlns="http://www.w3.org/2000/svg" xmlns:xlink="http://www.w3.org/1999/xlink" x="0px" y="0px" viewBox="0 0 144 127"
	 style="enable-background:new 0 0 144 127;" xml:space="preserve">
<g>
	<path d="M77.926,80.277c7.062-2.976,12.636-7.027,16.719-12.156c4.085-5.125,6.125-10.711,6.125-16.75s-2.04-11.625-6.125-16.75
		c-4.086-5.129-9.657-9.18-16.719-12.156C70.867,19.488,63.188,18,54.887,18c-8.301,0-15.981,1.488-23.043,4.465
		c-7.059,2.976-12.633,7.027-16.715,12.156C11.043,39.75,9,45.332,9,51.371c0,5.172,1.543,10.039,4.629,14.602
		c3.086,4.562,7.324,8.41,12.711,11.535c-0.434,1.047-0.879,2-1.336,2.871c-0.457,0.867-1,1.703-1.629,2.508
		c-0.633,0.804-1.121,1.433-1.469,1.89c-0.347,0.457-0.91,1.098-1.695,1.922c-0.781,0.824-1.281,1.367-1.5,1.629
		c0-0.043-0.086,0.055-0.258,0.293c-0.176,0.238-0.273,0.348-0.293,0.328c-0.023-0.023-0.109,0.086-0.262,0.324
		c-0.152,0.239-0.23,0.36-0.23,0.36l-0.16,0.324c-0.067,0.129-0.11,0.258-0.133,0.391c-0.02,0.129-0.031,0.273-0.031,0.422
		c0,0.152,0.019,0.292,0.066,0.425c0.086,0.563,0.336,1.02,0.75,1.367c0.41,0.348,0.856,0.52,1.336,0.52h0.195
		c2.172-0.305,4.039-0.652,5.606-1.043c6.691-1.738,12.73-4.519,18.117-8.344c3.91,0.696,7.734,1.043,11.473,1.043
		C63.188,84.742,70.867,83.254,77.926,80.277L77.926,80.277z M77.926,80.277"/>
	<path d="M121.172,82.691c3.086-4.543,4.629-9.418,4.629-14.632c0-5.348-1.633-10.348-4.891-14.997
		c-3.258-4.648-7.691-8.515-13.297-11.601c1,3.262,1.5,6.562,1.5,9.91c0,5.82-1.453,11.34-4.367,16.555
		c-2.91,5.211-7.082,9.816-12.516,13.816c-5.039,3.649-10.777,6.453-17.207,8.41c-6.429,1.953-13.144,2.93-20.14,2.93
		c-1.301,0-3.215-0.086-5.735-0.258c8.735,5.735,18.989,8.602,30.766,8.602c3.738,0,7.559-0.348,11.473-1.043
		c5.386,3.824,11.425,6.605,18.117,8.344c1.562,0.39,3.434,0.738,5.605,1.043c0.52,0.042,1-0.11,1.434-0.458
		c0.434-0.347,0.719-0.824,0.848-1.433c-0.02-0.258,0-0.402,0.066-0.422c0.063-0.02,0.051-0.164-0.031-0.422
		c-0.09-0.262-0.133-0.394-0.133-0.394l-0.16-0.325c-0.047-0.086-0.121-0.207-0.231-0.355c-0.109-0.152-0.195-0.262-0.261-0.328
		c-0.063-0.063-0.161-0.172-0.293-0.324c-0.129-0.153-0.215-0.25-0.258-0.293c-0.219-0.262-0.719-0.805-1.5-1.629
		c-0.781-0.825-1.348-1.465-1.695-1.922c-0.348-0.457-0.836-1.086-1.465-1.891c-0.629-0.804-1.172-1.64-1.629-2.512
		c-0.457-0.867-0.903-1.824-1.336-2.867C113.852,91.066,118.086,87.23,121.172,82.691L121.172,82.691z M121.172,82.691"/>
</g>
</svg>
