<?xml version="1.0" encoding="iso-8859-1"?>
<!-- Generator: Adobe Illustrator 22.0.0, SVG Export Plug-In . SVG Version: 6.00 Build 0)  -->
<svg version="1.1" id="Capa_1" xmlns="http://www.w3.org/2000/svg" xmlns:xlink="http://www.w3.org/1999/xlink" x="0px" y="0px"
	 viewBox="-19 262 452 270" style="enable-background:new -19 262 452 270;" xml:space="preserve">
<path d="M429.177,386.995C424.606,381.897,344.681,262,207,262S-10.606,381.897-15.177,386.995c-5.098,5.698-5.098,14.312,0,20.01
	C-10.606,412.103,69.319,532,207,532s217.606-119.897,222.177-124.995C434.274,401.307,434.274,392.693,429.177,386.995z M312,397
	c0,57.891-47.109,105-105,105s-105-47.109-105-105s47.109-105,105-105S312,339.109,312,397z"/>
<path d="M222,367c0-15.09,7.491-28.365,18.887-36.53C230.661,325.235,219.255,322,207,322c-41.353,0-75,33.647-75,75
	s33.647,75,75,75c37.024,0,67.668-27.034,73.722-62.358C250.516,419.367,222,396.522,222,367z"/>
</svg>
