<?xml version="1.0" encoding="utf-8"?>
<!-- Generator: Adobe Illustrator 22.0.0, SVG Export Plug-In . SVG Version: 6.00 Build 0)  -->
<svg version="1.1" id="Capa_1" xmlns="http://www.w3.org/2000/svg" xmlns:xlink="http://www.w3.org/1999/xlink" x="0px" y="0px"
	 viewBox="-22.2 231.4 467.2 421.6" style="enable-background:new -22.2 231.4 467.2 421.6;" xml:space="preserve">
<path d="M56.7,382.5H-3.4c-8.3,0-15,6.7-15,15V638c0,8.3,6.7,15,15,15h60.1c8.3,0,15-6.7,15-15V397.5
	C71.7,389.2,65,382.5,56.7,382.5z"/>
<path d="M432.1,422.3c-2.7-23.3-24.4-39.8-47.9-39.8H267.1c10-17.8,15.3-68.3,15.1-88.9c-0.4-34.1-28.6-61.4-62.7-61.4H207
	c-8.3,0-15,6.7-15,15c0,34.8-13.5,97.5-39.1,123c-17.2,17.2-31.9,23.4-51.1,33v225.5c29.5,9.8,66.9,24.2,124,24.2h98.3
	c32.4,0,57.6-30,45.1-61.7c19.1-5.2,33.2-22.7,33.2-43.5c0-5.9-1.1-11.5-3.2-16.6c32.2-8.8,44.1-48.6,21.7-73.6
	C429.2,448.4,433.7,435.9,432.1,422.3z"/>
</svg>
