<?xml version="1.0" encoding="iso-8859-1"?>
<!-- Generator: Adobe Illustrator 22.0.0, SVG Export Plug-In . SVG Version: 6.00 Build 0)  -->
<svg version="1.1" id="&#x421;&#x43B;&#x43E;&#x439;_1"
	 xmlns="http://www.w3.org/2000/svg" xmlns:xlink="http://www.w3.org/1999/xlink" x="0px" y="0px" viewBox="0 0 61 58"
	 style="enable-background:new 0 0 61 58;" xml:space="preserve">
<g>
	<g>
		<defs>
			<rect id="SVGID_1_" x="8" y="12" width="42" height="39.84"/>
		</defs>
		<clipPath id="SVGID_2_">
			<use xlink:href="#SVGID_1_"  style="overflow:visible;"/>
		</clipPath>
		<path style="clip-path:url(#SVGID_2_);" d="M49.527,23.735c-0.605-6.683-5.336-11.531-11.257-11.531
			c-3.942,0-7.555,2.125-9.586,5.523c-2.012-3.445-5.477-5.523-9.356-5.523c-5.922,0-10.652,4.848-11.258,11.531
			c-0.05,0.297-0.246,1.848,0.352,4.383c0.863,3.656,2.855,6.981,5.762,9.609L28.676,50.88l14.738-13.149
			c2.906-2.632,4.898-5.957,5.762-9.613C49.773,25.587,49.574,24.032,49.527,23.735L49.527,23.735z M49.527,23.735"/>
	</g>
</g>
</svg>
