<?xml version="1.0" encoding="utf-8"?>
<!-- Generator: Adobe Illustrator 21.1.0, SVG Export Plug-In . SVG Version: 6.00 Build 0)  -->
<svg version="1.1" id="Слой_1" xmlns="http://www.w3.org/2000/svg" xmlns:xlink="http://www.w3.org/1999/xlink" x="0px" y="0px"
	 viewBox="0 0 104 93" style=" fill:#fecb2e ;enable-background:new 0 0 104 93;" xml:space="preserve">
<style type="text/css">
	.st0{ fill:#fecb2e;}
</style>
<g>
	<path class="st0" d="M81.6,71.6c1.6,0,3-0.5,4.2-1.6L65.4,49.6c-0.5,0.4-1,0.7-1.4,1c-1.5,1.1-2.8,2-3.7,2.6
		c-1,0.6-2.2,1.3-3.8,1.9c-1.6,0.7-3.1,1-4.4,1H52c-1.4,0-2.8-0.3-4.4-1c-1.6-0.7-2.8-1.3-3.8-1.9c-0.9-0.6-2.2-1.5-3.7-2.6
		c-0.4-0.3-0.9-0.7-1.4-1L18.2,70c1.2,1.1,2.6,1.6,4.2,1.6H81.6z M81.6,71.6"/>
	<path class="st0" d="M20.1,36.7c-1.5-1-2.9-2.2-4.1-3.5v31l18-18C30.4,43.8,25.7,40.6,20.1,36.7L20.1,36.7z M20.1,36.7"/>
	<path class="st0" d="M84,36.7c-5.5,3.7-10.1,6.9-14,9.6l18,18v-31C86.8,34.5,85.5,35.7,84,36.7L84,36.7z M84,36.7"/>
	<path class="st0" d="M81.6,15H22.4c-2.1,0-3.7,0.7-4.8,2.1c-1.1,1.4-1.7,3.1-1.7,5.2c0,1.7,0.7,3.5,2.2,5.5c1.5,2,3,3.5,4.7,4.6
		c0.9,0.6,3.7,2.6,8.2,5.7c2.5,1.7,4.6,3.2,6.5,4.5c1.6,1.1,2.9,2,4.1,2.8c0.1,0.1,0.3,0.2,0.6,0.4c0.3,0.2,0.7,0.5,1.1,0.8
		c0.9,0.6,1.6,1.1,2.2,1.5c0.6,0.4,1.3,0.8,2.1,1.3c0.8,0.5,1.6,0.8,2.3,1.1c0.7,0.2,1.4,0.4,2,0.4H52c0.6,0,1.3-0.1,2-0.4
		c0.7-0.2,1.5-0.6,2.3-1.1c0.8-0.5,1.5-0.9,2.1-1.3c0.6-0.4,1.3-0.9,2.2-1.5c0.4-0.3,0.8-0.6,1.1-0.8c0.3-0.2,0.5-0.3,0.6-0.4
		c0.9-0.6,2.2-1.6,4.1-2.8c3.3-2.3,8.2-5.7,14.7-10.2c2-1.4,3.6-3,4.9-4.9c1.3-1.9,2-4,2-6.1c0-1.8-0.6-3.3-1.9-4.5
		C84.8,15.6,83.3,15,81.6,15L81.6,15z M81.6,15"/>
</g>
</svg>
