<?xml version="1.0" encoding="utf-8"?>
<!-- Generator: Adobe Illustrator 22.0.0, SVG Export Plug-In . SVG Version: 6.00 Build 0)  -->
<svg version="1.1" id="Слой_1" xmlns="http://www.w3.org/2000/svg" xmlns:xlink="http://www.w3.org/1999/xlink" x="0px" y="0px"
	 viewBox="0 0 73.5 65.3" style="enable-background:new 0 0 73.5 65.3;" xml:space="preserve">
<style type="text/css">
	.st0{fill:none;}
	.st1{fill:#F9E8C7;}
	.st2{fill:#9B857A;}
	.st3{fill:#D18F71;}
	.st4{opacity:0.63;fill:#D18F71;enable-background:new    ;}
	.st5{opacity:0.2;fill:#2B2928;enable-background:new    ;}
</style>
<path class="st0" d="M-11.7-6.7h98v72h-98V-6.7z"/>
<path class="st1" d="M28.2,53.9L54.1,4l19.8,10.3L48,64.1L28.2,53.9z"/>
<circle class="st2" cx="67.1" cy="16.6" r="2.8"/>
<path class="st3" d="M56.6,19.4C53.9,18,51,16.7,48,15.5l-4.7,9c2.6,1.8,5.3,3.4,8.1,4.8c3.8,2,7.8,3.7,11.9,5l4.2-8.1
	C64.1,23.7,60.5,21.4,56.6,19.4z"/>
<path class="st4" d="M33.9,42.7L45.7,20l19.8,10.3L53.7,52.9L33.9,42.7z"/>
<path class="st3" d="M51.3,14.3l1.2-2.4c0.2-0.3,0.5-0.4,0.8-0.3l0,0c0.3,0.2,0.4,0.5,0.3,0.8l-1.2,2.4c-0.2,0.3-0.5,0.4-0.8,0.3
	l0,0C51.3,15,51.2,14.7,51.3,14.3z M53,15.1l1.2-2.4c0.2-0.3,0.5-0.4,0.8-0.3l0,0c0.3,0.2,0.4,0.5,0.3,0.8l-1.2,2.4
	c-0.2,0.3-0.5,0.4-0.8,0.3l0,0c-0.3-0.1-0.4-0.3-0.4-0.6C52.9,15.3,53,15.2,53,15.1z"/>
<path class="st5" d="M50.9,50.6l5-23.3l0.4-1.7l1-4.7l2.8-13L38.3,3.2l-2.8,12.7l-1.1,5l-0.4,2l-5,23l-2.6,12.3l21.8,4.7L50.9,50.6z
	"/>
<path class="st1" d="M26.7,56.9l8.7-55.5l22,3.5l-8.7,55.5L26.7,56.9z"/>
<circle class="st2" cx="51.9" cy="9.3" r="2.8"/>
<path class="st3" d="M42.7,15.2c-3.1-0.5-6.3-0.8-9.4-0.9l-1.6,10.1c3,0.9,6.1,1.5,9.2,2c4.3,0.7,8.6,1,12.9,1l1.4-9
	C51.2,17,47,15.9,42.7,15.2z"/>
<path class="st4" d="M28.6,44.5l4-25.3l22,3.5l-4,25.3L28.6,44.5z"/>
<path class="st3" d="M36.1,12.1l0.5-2.6C36.7,9.2,37,8.9,37.3,9l0,0c0.3,0,0.5,0.3,0.5,0.7l-0.4,2.6c-0.1,0.3-0.4,0.6-0.7,0.5l0,0
	C36.3,12.8,36.1,12.5,36.1,12.1z M37.9,12.3l0.4-2.6c0.1-0.3,0.4-0.6,0.7-0.5l0,0c0.3,0,0.6,0.2,0.6,0.6c0,0,0,0,0,0l-0.4,2.6
	c-0.1,0.3-0.4,0.6-0.7,0.5l0,0C38.2,13,37.9,12.7,37.9,12.3C37.9,12.4,37.9,12.4,37.9,12.3z"/>
<path class="st5" d="M46.5,47l-2.1-23.8l-0.1-1.7l-0.5-4.7L42.7,3.5L20.4,5.4l1.2,13l0.4,5l0.2,2.1l2.1,23.4l1,12.6l22.3-2L46.5,47z
	"/>
<path class="st1" d="M17.2,4.5l22.1-3.2L47.3,57l-22.1,3.2L17.2,4.5z"/>
<circle class="st2" cx="35.2" cy="7.2" r="2.8"/>
<path class="st3" d="M28.3,15.6c-3.1,0.4-6.2,1.1-9.3,1.9l1.5,10.1c3.1-0.1,6.3-0.4,9.4-0.8c4.3-0.6,8.5-1.6,12.6-2.9l-1.3-9.1
	C36.9,14.7,32.6,15,28.3,15.6z"/>
<path class="st4" d="M19.8,22.4l22.1-3.2l3.7,25.3l-22.1,3.2L19.8,22.4z"/>
<path class="st3" d="M21.1,14.6l-0.4-2.7c0-0.3,0.2-0.6,0.5-0.7l0,0c0.3,0,0.6,0.2,0.7,0.5l0.4,2.7c0,0.3-0.2,0.6-0.5,0.7l0,0
	C21.4,15.1,21.1,14.9,21.1,14.6z M22.8,14.2l-0.4-2.7c0-0.3,0.2-0.6,0.5-0.7l0,0c0.3,0,0.6,0.2,0.7,0.5L24,14c0,0.3-0.2,0.6-0.5,0.7
	l0,0C23.2,14.8,22.9,14.5,22.8,14.2z"/>
<path class="st5" d="M41.9,46.1l-9.5-21.9l-0.7-1.6l-1.9-4.3L24.5,6L4,14.9l5.2,11.9l2,4.7l0.8,1.9L21.4,55l17.3,3.8l8.2-1.2
	L41.9,46.1z"/>
<path class="st1" d="M0.7,15.1l19.9-10l25.2,50.2l-19.9,10L0.7,15.1z"/>
<circle class="st2" cx="18.6" cy="11.9" r="2.8"/>
<path class="st3" d="M14.7,22.1c-2.8,1.4-5.6,3-8.2,4.7l4.6,9.1c3-1.1,5.9-2.3,8.7-3.8c3.9-1.9,7.6-4.2,11.1-6.7l-4.1-8.2
	C22.7,18.5,18.6,20.1,14.7,22.1z"/>
<path class="st4" d="M8.8,31.2l19.9-10l11.5,22.9l-19.9,10L8.8,31.2z"/>
<path class="st3" d="M7.5,23.1l-1.6-3.2c-0.2-0.4,0-0.9,0.4-1.1l0,0c0.4-0.2,0.9,0,1.1,0.4L9,22.4c0.2,0.4,0,0.9-0.4,1.1l0,0
	C8.2,23.7,7.7,23.6,7.5,23.1z M10.2,21.7l-1.6-3.2c-0.2-0.4,0-0.9,0.4-1.1l0,0c0.4-0.2,0.9,0,1.1,0.4l1.6,3.2c0.2,0.4,0,0.9-0.4,1.1
	l0,0C10.9,22.3,10.4,22.2,10.2,21.7z"/>
</svg>
