<?xml version="1.0" encoding="utf-8"?>
<!-- Generator: Adobe Illustrator 22.0.0, SVG Export Plug-In . SVG Version: 6.00 Build 0)  -->
<svg version="1.1" id="Слой_1" xmlns="http://www.w3.org/2000/svg" xmlns:xlink="http://www.w3.org/1999/xlink" x="0px" y="0px"
	 viewBox="0 0 80.3 72" style="enable-background:new 0 0 80.3 72;" xml:space="preserve">
<style type="text/css">
	.st0{fill:#2048A3;}
	.st1{fill:#FACD17;}
</style>
<path class="st0" d="M71.6,22.1c-0.4-4.7-2.2-8.5-5.3-11.1c-4.4-3.8-10.9-4.5-18.2-2c-7,2.4-14,7.4-19.8,14.2
	C16,37.6,13.4,55,22.4,62.7c2.7,2.3,6.2,3.5,10.1,3.5c2.5,0,5.3-0.5,8.2-1.4c7-2.4,14.1-7.4,19.8-14.2
	C68.2,41.5,72.3,30.8,71.6,22.1z M56.6,47.3L56.6,47.3c-7.3,8.5-16.5,13.9-24.2,13.9c-2.5,0.1-4.9-0.7-6.8-2.3
	c-3.1-2.6-4.2-7.4-3.2-13.3c1.1-6.3,4.6-13.1,9.7-19.1c7.3-8.5,16.6-13.9,24.2-13.9c0.1,0,0.3,0,0.4,0c2.3,0,4.6,0.8,6.4,2.3
	c2.1,1.8,3.3,4.5,3.5,7.9C67.2,30,63.4,39.4,56.6,47.3z"/>
<path class="st1" d="M15.4,29.5l1.2-4h48.2l-1.3,4H15.4z M-1.2,37.5l1.2-4h42.7l-1.2,4H-1.2z M6.1,46.5l1.2-4h39.5l-1.3,4H6.1z"/>
</svg>
