<?xml version="1.0" encoding="utf-8"?>
<!-- Generator: Adobe Illustrator 22.0.0, SVG Export Plug-In . SVG Version: 6.00 Build 0)  -->
<svg version="1.1" id="Слой_1" xmlns="http://www.w3.org/2000/svg" xmlns:xlink="http://www.w3.org/1999/xlink" x="0px" y="0px"
	 viewBox="0 0 60.3 59.3" style="enable-background:new 0 0 60.3 59.3;" xml:space="preserve">
<style type="text/css">
	.st0{fill:#5B5B5B;}
	.st1{fill:#00CE93;}
	.st2{fill:#FFFFFF;}
	.st3{fill:#0084FD;}
	.st4{opacity:0.2;fill:#060000;enable-background:new    ;}
</style>
<path class="st0" d="M32.3,53.9c0,2.5-2.1,4.6-4.6,4.6H5.8c-2.5,0-4.6-2.1-4.6-4.6V5.3c0-2.5,2.1-4.6,4.6-4.6h21.9
	c2.5,0,4.6,2,4.6,4.6c0,0,0,0,0,0V53.9z"/>
<path class="st1" d="M4.2,8.6h25.1v42H4.2V8.6z"/>
<circle class="st2" cx="16.8" cy="54.5" r="2.2"/>
<circle class="st3" cx="38.5" cy="28.5" r="20.7"/>
<path class="st3" d="M20.2,36.1l9.1,9.2l-12.5,3.3L20.2,36.1z"/>
<path class="st2" d="M42.1,31.8H36v2.1h9.1c0.3,0,0.6,0.3,0.6,0.6v2.3c0,0.3-0.3,0.6-0.6,0.6H36v3.5c0,0.3-0.3,0.6-0.6,0.6h-3
	c-0.3,0-0.6-0.3-0.6-0.6v-3.5h-4c-0.3,0-0.6-0.3-0.6-0.6v-2.3c0-0.3,0.3-0.6,0.6-0.6h4v-2.1h-4c-0.3,0-0.6-0.3-0.6-0.6v-2.7
	c0-0.3,0.3-0.6,0.6-0.6h4V16.7c0-0.3,0.3-0.6,0.6-0.6h9.7c4.8,0,8.1,3.2,8.1,7.9C50.2,28.6,46.9,31.8,42.1,31.8z M41.7,19.9h-5.8V28
	h5.8c2.1,0.2,4-1.4,4.2-3.6c0-0.1,0-0.3,0-0.4C46,21.5,44.3,19.9,41.7,19.9z"/>
<path class="st4" d="M52.3,13L16.8,48.4l-0.1,0.2l10.5-2.7c9.6,6.2,22.5,3.4,28.7-6.2c2.1-3.3,3.3-7.2,3.3-11.2
	C59.2,22.6,56.7,16.9,52.3,13z"/>
</svg>
