<?xml version="1.0" encoding="utf-8"?>
<!-- Generator: Adobe Illustrator 22.0.0, SVG Export Plug-In . SVG Version: 6.00 Build 0)  -->
<svg version="1.1" id="shoppop" xmlns="http://www.w3.org/2000/svg" xmlns:xlink="http://www.w3.org/1999/xlink" x="0px" y="0px"
	 viewBox="0 0 100 125" style="enable-background:new 0 0 100 125;" xml:space="preserve">
<path d="M75,48.9c-0.2,0-0.4,0-0.6,0c-3.4,0-6.1-2.7-6.1-6.1c0,3.4-2.7,6.1-6.1,6.1s-6.1-2.7-6.1-6.1c0,3.4-2.7,6.1-6.1,6.1
	s-6.1-2.7-6.1-6.1c0,3.4-2.7,6.1-6.1,6.1c-3.4,0-6.1-2.7-6.1-6.1c0,3.4-2.7,6.1-6.1,6.1c-0.2,0-0.4,0-0.6,0
	c-3.9-0.4-6.1-4.8-4.4-8.3L27,27c0.2-0.3,0.5-0.5,0.9-0.5h44.2c0.4,0,0.7,0.2,0.9,0.5l6.4,13.6C81.1,44.1,78.9,48.5,75,48.9z
	 M68.3,48.1c1,1.1,2.3,2,3.8,2.4v23H47.9V55.7H33.4v17.9h-5.5v-23c1.5-0.4,2.8-1.3,3.8-2.4c1.5,1.7,3.7,2.8,6.1,2.8s4.6-1.1,6.1-2.8
	c1.5,1.7,3.7,2.8,6.1,2.8s4.6-1.1,6.1-2.8c1.5,1.7,3.7,2.8,6.1,2.8S66.8,49.8,68.3,48.1z M67.1,55.7H56.3v5.6h10.9L67.1,55.7
	L67.1,55.7z"/>
</svg>
